<svg width="48" height="51" viewBox="0 0 48 51" fill="none" xmlns="http://www.w3.org/2000/svg">
<path d="M5.4253 9.57241L23.4253 4.17241C23.8002 4.05995 24.1998 4.05995 24.5747 4.17241L42.5747 9.57241C43.4207 9.8262 44 10.6048 44 11.4881V21.5535C44 32.602 37.0174 42.4439 26.5891 46.0938L24.6607 46.7688C24.233 46.9185 23.767 46.9185 23.3393 46.7688L21.4109 46.0938C10.9826 42.4439 4 32.602 4 21.5535V11.4881C4 10.6048 4.57934 9.8262 5.4253 9.57241Z" fill="white"/>
<path d="M5.4253 9.57241L23.4253 4.17241C23.8002 4.05995 24.1998 4.05995 24.5747 4.17241L42.5747 9.57241C43.4207 9.8262 44 10.6048 44 11.4881V21.5535C44 32.602 37.0174 42.4439 26.5891 46.0938L24.6607 46.7688C24.233 46.9185 23.767 46.9185 23.3393 46.7688L21.4109 46.0938C10.9826 42.4439 4 32.602 4 21.5535V11.4881C4 10.6048 4.57934 9.8262 5.4253 9.57241Z" fill="url(#paint0_linear_299_1243)"/>
<path d="M23.1338 2.18262C23.7993 2.035 24.4934 2.06002 25.1494 2.25684L43.1494 7.65723L43.46 7.76367C44.9816 8.35937 46 9.83212 46 11.4883V21.5537C45.9999 33.2661 38.7132 43.7189 27.7734 47.792L27.25 47.9814L25.3213 48.6562C24.5728 48.9182 23.766 48.9513 23.0029 48.7549L22.6787 48.6562L20.75 47.9814C9.51975 44.0508 2.00009 33.452 2 21.5537V11.4883C2 9.7219 3.15873 8.16485 4.85059 7.65723L22.8506 2.25684L23.1338 2.18262Z" stroke="#FF4D4F" stroke-opacity="0.2" stroke-width="4" stroke-linejoin="round"/>
<path d="M20.5 24.3269C20.5 22.2824 22.067 20.625 24 20.625C25.933 20.625 27.5 22.2824 27.5 24.3269V29.6875H20.5V24.3269Z" fill="url(#paint1_linear_299_1243)" fill-opacity="0.4"/>
<path fill-rule="evenodd" clip-rule="evenodd" d="M24 11.2915C24.4832 11.2915 24.875 11.6833 24.875 12.1665V13.9165C24.875 14.3998 24.4832 14.7915 24 14.7915C23.5168 14.7915 23.125 14.3998 23.125 13.9165V12.1665C23.125 11.6833 23.5168 11.2915 24 11.2915Z" fill="white"/>
<path fill-rule="evenodd" clip-rule="evenodd" d="M31.4991 14.0211C31.8693 14.3318 31.9176 14.8837 31.607 15.2539L30.4821 16.5945C30.1714 16.9647 29.6195 17.0129 29.2493 16.7023C28.8792 16.3917 28.8309 15.8398 29.1415 15.4696L30.2664 14.129C30.577 13.7588 31.1289 13.7105 31.4991 14.0211Z" fill="white"/>
<path fill-rule="evenodd" clip-rule="evenodd" d="M35.4894 20.9317C35.5733 21.4076 35.2555 21.8614 34.7796 21.9453L33.0562 22.2493C32.5802 22.3332 32.1264 22.0154 32.0425 21.5395C31.9586 21.0636 32.2763 20.6098 32.7522 20.5259L34.4757 20.2219C34.9516 20.138 35.4054 20.4558 35.4894 20.9317Z" fill="white"/>
<path fill-rule="evenodd" clip-rule="evenodd" d="M12.5105 20.9327C12.5944 20.4568 13.0482 20.139 13.5241 20.2229L15.2476 20.5268C15.7235 20.6107 16.0412 21.0645 15.9573 21.5404C15.8734 22.0163 15.4196 22.3341 14.9437 22.2502L13.2203 21.9463C12.7444 21.8624 12.4266 21.4086 12.5105 20.9327Z" fill="white"/>
<path fill-rule="evenodd" clip-rule="evenodd" d="M16.5008 14.0211C16.871 13.7105 17.4229 13.7588 17.7335 14.129L18.8584 15.4696C19.1691 15.8398 19.1208 16.3917 18.7506 16.7023C18.3804 17.0129 17.8285 16.9647 17.5179 16.5945L16.393 15.2539C16.0823 14.8837 16.1306 14.3318 16.5008 14.0211Z" fill="white"/>
<path fill-rule="evenodd" clip-rule="evenodd" d="M17.2918 31.2914V23.8333C17.2918 20.1285 20.2953 17.125 24.0001 17.125C27.705 17.125 30.7085 20.1285 30.7085 23.8333V31.2914H34.5C34.9832 31.2914 35.375 31.6831 35.375 32.1664C35.375 32.6496 34.9832 33.0414 34.5 33.0414H29.856C29.8485 33.0416 29.841 33.0417 29.8335 33.0417H18.1668C18.1593 33.0417 18.1517 33.0416 18.1442 33.0414H13.5C13.0168 33.0414 12.625 32.6496 12.625 32.1664C12.625 31.6831 13.0168 31.2914 13.5 31.2914H17.2918ZM19.0418 23.8333C19.0418 21.0949 21.2618 18.875 24.0001 18.875C26.7385 18.875 28.9585 21.0949 28.9585 23.8333V31.2914H19.0418V23.8333Z" fill="white"/>
<defs>
<linearGradient id="paint0_linear_299_1243" x1="11.5" y1="8" x2="32.5" y2="44.5" gradientUnits="userSpaceOnUse">
<stop stop-color="#FF4D4F"/>
<stop offset="1" stop-color="#FF4D4F" stop-opacity="0.68"/>
</linearGradient>
<linearGradient id="paint1_linear_299_1243" x1="24" y1="20.625" x2="24" y2="29.6875" gradientUnits="userSpaceOnUse">
<stop stop-color="white"/>
<stop offset="1" stop-color="white" stop-opacity="0.3"/>
</linearGradient>
</defs>
</svg>
